<svg width="56" height="56" viewBox="0 0 56 56" fill="none" xmlns="http://www.w3.org/2000/svg">
<g clip-path="url(#clip0_1_74)">
<path d="M56 28.0004C56 30.4303 53.9899 32.5632 53.3906 34.805C52.771 37.1237 53.4271 39.9734 52.2518 42.0037C51.0602 44.0628 48.2533 44.9124 46.5821 46.5836C44.9108 48.2548 44.0612 51.0617 42.0021 52.2533C39.9718 53.4279 37.1229 52.7718 34.8042 53.3913C32.5632 53.9906 30.4303 56.0008 27.9996 56.0008C25.569 56.0008 23.436 53.9906 21.195 53.3913C18.8763 52.7718 16.0267 53.4279 13.9971 52.2533C11.938 51.0617 11.0884 48.2548 9.41715 46.5836C7.74593 44.9124 4.93905 44.0628 3.74743 42.0029C2.57291 39.9726 3.22896 37.1237 2.60866 34.805C2.01013 32.5632 0 30.4303 0 28.0004C0 25.5705 2.01013 23.4376 2.60944 21.1958C3.22896 18.8771 2.57291 16.0274 3.74821 13.9971C4.93983 11.938 7.74671 11.0884 9.41793 9.41715C11.0892 7.74593 11.9388 4.93905 13.9979 3.74743C16.0282 2.57291 18.8771 3.22896 21.1958 2.60866C23.4368 2.01013 25.5705 0 28.0004 0C30.4303 0 32.5632 2.01013 34.805 2.60944C37.1237 3.22896 39.9734 2.57291 42.0037 3.74821C44.0628 4.93983 44.9124 7.74671 46.5836 9.41793C48.2548 11.0892 51.0617 11.9388 52.2533 13.9979C53.4279 16.0282 52.7718 18.8771 53.3921 21.1958C53.9914 23.4368 56.0016 25.5697 56.0016 28.0004H56Z" fill="#0F0F11"/>
<path d="M44.9457 44.9459C54.3045 35.5871 54.3045 20.4136 44.9457 11.0548C35.587 1.6961 20.4135 1.6961 11.0547 11.0549C1.69596 20.4136 1.69596 35.5871 11.0547 44.9459C20.4135 54.3046 35.587 54.3046 44.9457 44.9459Z" fill="#BCBEC0"/>
<path d="M44.1548 44.1549C53.0768 35.233 53.0768 20.7677 44.1548 11.8458C35.2329 2.92386 20.7676 2.92386 11.8457 11.8458C2.92375 20.7677 2.92375 35.233 11.8457 44.1549C20.7676 53.0769 35.2329 53.0769 44.1548 44.1549Z" fill="#FEFEFE"/>
<path d="M37.9793 37.9009C43.4907 32.3895 43.4907 23.4537 37.9793 17.9422C32.4678 12.4308 23.532 12.4308 18.0206 17.9422C12.5092 23.4537 12.5092 32.3895 18.0206 37.9009C23.532 43.4123 32.4678 43.4123 37.9793 37.9009Z" fill="#0F0F11"/>
<path d="M15.5805 42.4374C15.1747 42.8051 14.7542 43.0562 14.3181 43.1906C13.882 43.3243 13.4599 43.3337 13.0519 43.2171C12.6438 43.1005 12.2831 42.8696 11.9698 42.5245C11.6597 42.1832 11.4654 41.8039 11.3869 41.3865C11.3076 40.9699 11.3542 40.5493 11.5252 40.1257C11.6962 39.7021 11.9792 39.3095 12.374 38.9481L12.5777 38.7631C12.9835 38.3954 13.4071 38.1443 13.8478 38.0106C14.2893 37.8769 14.713 37.8692 15.1211 37.9858C15.5284 38.1031 15.8875 38.3332 16.1992 38.6768C16.5109 39.0204 16.7052 39.4005 16.7822 39.8171C16.8591 40.2337 16.8094 40.655 16.6337 41.0818C16.458 41.5078 16.1681 41.9042 15.7639 42.2703L15.5797 42.4374H15.5805ZM14.9874 41.4075C15.4196 41.0157 15.6776 40.6403 15.7616 40.2819C15.8455 39.9236 15.7577 39.601 15.4981 39.3142C15.2392 39.0289 14.9291 38.91 14.5668 38.9566C14.2046 39.0033 13.809 39.2194 13.3783 39.6065L13.177 39.7883C12.7565 40.17 12.5 40.5439 12.4082 40.9092C12.3165 41.2746 12.4028 41.6026 12.6663 41.8933C12.9252 42.1786 13.2353 42.296 13.5975 42.2454C13.9598 42.1957 14.3562 41.9773 14.786 41.5902L14.9874 41.4083V41.4075Z" fill="#0F0F11"/>
<path d="M17.8782 44.6823L17.0993 44.2058L16.036 45.9431L15.0581 45.3446L17.9621 40.5983L19.7259 41.6772C20.2863 42.02 20.6423 42.4102 20.7939 42.8463C20.9455 43.2824 20.881 43.7286 20.6019 44.1849C20.4037 44.509 20.1682 44.736 19.8961 44.8666C19.6233 44.9971 19.3061 45.0391 18.9423 44.9933L18.7822 47.5615L18.7542 47.6074L17.7049 46.9653L17.8782 44.6831V44.6823ZM17.5844 43.4138L18.3733 43.8965C18.619 44.0465 18.8475 44.1009 19.0582 44.0582C19.2696 44.0154 19.4422 43.8848 19.5766 43.6648C19.7134 43.441 19.7577 43.2264 19.7088 43.0204C19.6606 42.8145 19.5043 42.631 19.2416 42.4701L18.4557 41.9897L17.5844 43.4145V43.4138Z" fill="#0F0F11"/>
<path d="M20.2684 48.2245L21.7562 42.8626L23.4064 43.3204C23.8775 43.451 24.27 43.6741 24.5833 43.9897C24.8966 44.3053 25.1025 44.6877 25.2028 45.1378C25.3031 45.5871 25.2837 46.0613 25.1453 46.5595L25.0769 46.8059C24.9385 47.3042 24.7131 47.7193 24.4006 48.0504C24.0882 48.3815 23.7158 48.6015 23.2829 48.7119C22.8507 48.8223 22.3998 48.8129 21.9296 48.6855L20.2684 48.2245ZM22.6128 44.0643L21.6194 47.6439L22.1534 47.7923C22.5856 47.912 22.9548 47.8631 23.2619 47.6439C23.5681 47.4254 23.7967 47.0539 23.9475 46.5292L24.026 46.2455C24.1775 45.7006 24.1791 45.256 24.0314 44.9124C23.8837 44.5688 23.5922 44.3364 23.1577 44.2159L22.6128 44.0651V44.0643Z" fill="#0F0F11"/>
<path d="M29.4749 47.1526L27.2736 47.1355L27.2619 48.6264L29.8457 48.6466L29.8387 49.5677L26.1084 49.539L26.1519 43.975L29.8745 44.0037L29.8675 44.9326L27.2915 44.9124L27.2814 46.2385L29.4827 46.2556L29.4757 47.1534L29.4749 47.1526Z" fill="#0F0F11"/>
<path d="M32.8905 46.8899L32.0051 47.1161L32.5088 49.0897L31.398 49.3734L30.0214 43.982L32.0246 43.4705C32.6612 43.3081 33.189 43.3244 33.6072 43.5203C34.0254 43.7161 34.3005 44.0729 34.4327 44.5914C34.5267 44.9591 34.5252 45.2863 34.4288 45.5724C34.3324 45.8584 34.1412 46.1157 33.8544 46.3442L35.5831 48.2494L35.5963 48.3015L34.4039 48.6062L32.8889 46.8907L32.8905 46.8899ZM31.7758 46.216L32.6721 45.9875C32.9511 45.9167 33.1486 45.79 33.2659 45.6089C33.3825 45.4278 33.4097 45.2125 33.346 44.963C33.2815 44.7088 33.1579 44.5269 32.976 44.4181C32.7941 44.3092 32.5539 44.2929 32.2554 44.3691L31.3631 44.5968L31.7766 46.2152L31.7758 46.216Z" fill="#0F0F11"/>
<path d="M37.9073 47.1503L36.875 47.6485L34.456 42.6372L35.4883 42.1389L37.9073 47.1503Z" fill="#0F0F11"/>
<path d="M43.095 43.5521L42.1933 44.261L38.1754 42.7624L40.4382 45.6407L39.5365 46.3497L36.0977 41.9749L36.9986 41.266L41.0235 42.7686L38.7561 39.8847L39.6546 39.1782L43.0943 43.5529L43.095 43.5521Z" fill="#0F0F11"/>
<path d="M46.4142 38.0223C46.5004 38.3324 46.4919 38.6815 46.3901 39.0693C46.2882 39.4572 46.1063 39.8397 45.8452 40.2167C45.5715 40.6131 45.2443 40.9007 44.8657 41.0795C44.4864 41.2583 44.076 41.3158 43.6345 41.2505C43.193 41.1852 42.7491 41.0017 42.3014 40.6986L41.9905 40.4833C41.5334 40.1677 41.1914 39.8171 40.9636 39.4323C40.7359 39.0468 40.6341 38.648 40.6574 38.2353C40.6807 37.8225 40.8276 37.4214 41.0966 37.0312C41.472 36.4887 41.8949 36.1536 42.3651 36.0262C42.8354 35.8995 43.3376 35.978 43.8716 36.2632L43.2373 37.1812C42.9466 37.0421 42.69 37.0025 42.4701 37.0615C42.2493 37.1214 42.0519 37.2769 41.8778 37.5279C41.6562 37.8482 41.608 38.1762 41.7332 38.5104C41.8583 38.8447 42.1584 39.1774 42.6325 39.5085L42.9248 39.7106C43.4052 40.0425 43.8304 40.2019 44.2019 40.1887C44.5735 40.1755 44.8805 39.9936 45.1238 39.6414C45.3687 39.287 45.4682 38.9823 45.4215 38.7273L44.6326 38.1816L44.0395 39.0398L43.3445 38.5594L44.5898 36.7576L46.4165 38.02L46.4142 38.0223Z" fill="#0F0F11"/>
<path d="M17.6077 14.0484C17.467 13.8836 17.3014 13.8066 17.1095 13.8175C16.9182 13.8284 16.6291 13.9139 16.2435 14.074C15.858 14.2342 15.5362 14.3422 15.2789 14.3974C14.5762 14.5474 14.0375 14.4028 13.6621 13.9629C13.467 13.7343 13.3574 13.4755 13.3333 13.1856C13.3092 12.8964 13.3752 12.5987 13.5299 12.2917C13.6854 11.9854 13.9131 11.7032 14.214 11.4475C14.5163 11.1894 14.8327 11.0145 15.1623 10.922C15.4919 10.8295 15.8075 10.828 16.1091 10.9158C16.4099 11.0036 16.6687 11.1747 16.8856 11.4288L16.0134 12.1727C15.8479 11.9792 15.6582 11.8805 15.4444 11.8766C15.2307 11.8735 15.013 11.966 14.7923 12.1541C14.5793 12.336 14.4518 12.5225 14.4106 12.7137C14.3694 12.905 14.4114 13.0736 14.5373 13.2213C14.6547 13.3589 14.8226 13.4149 15.0402 13.39C15.2579 13.3651 15.5369 13.2781 15.8759 13.1296C16.4993 12.8552 17.0185 12.7324 17.4344 12.7596C17.8495 12.7868 18.1977 12.9656 18.4791 13.2952C18.7916 13.6613 18.8981 14.067 18.7986 14.5117C18.6991 14.9563 18.4146 15.3791 17.9458 15.7795C17.6201 16.057 17.2727 16.2505 16.9035 16.3593C16.5342 16.4682 16.1907 16.479 15.8735 16.392C15.5564 16.3041 15.2804 16.1238 15.048 15.851L15.9233 15.1047C16.322 15.5719 16.8001 15.5673 17.3582 15.0908C17.5657 14.9135 17.6917 14.734 17.736 14.5497C17.7803 14.3663 17.7383 14.1992 17.6093 14.0476L17.6077 14.0484Z" fill="#0F0F11"/>
<path d="M21.8449 10.6228L19.8495 11.5524L20.4791 12.9034L22.8212 11.8121L23.2098 12.6469L19.8285 14.2225L17.4779 9.17852L20.8522 7.60602L21.2448 8.44785L18.9097 9.53609L19.4702 10.7378L21.4655 9.80815L21.8449 10.622V10.6228Z" fill="#0F0F11"/>
<path d="M27.5511 10.0429C27.6008 10.6414 27.4547 11.1413 27.1142 11.5424C26.773 11.9434 26.2802 12.1945 25.6358 12.2948C24.9308 12.4044 24.3392 12.2544 23.8612 11.8424C23.3831 11.4312 23.0792 10.8109 22.9502 9.98306L22.8981 9.64726C22.8157 9.11869 22.8359 8.63831 22.9595 8.20612C23.0831 7.77471 23.3007 7.42337 23.614 7.15442C23.9265 6.88547 24.312 6.71446 24.7699 6.64294C25.4041 6.54422 25.942 6.63439 26.3828 6.91345C26.8235 7.1925 27.122 7.6348 27.2782 8.23955L26.1457 8.416C26.0625 8.06543 25.9234 7.82368 25.7291 7.68998C25.534 7.55629 25.2635 7.51742 24.916 7.57106C24.5382 7.63013 24.277 7.80969 24.1317 8.10896C23.9863 8.409 23.9552 8.84352 24.0392 9.41329L24.1037 9.82837C24.1962 10.4222 24.354 10.8428 24.5771 11.0892C24.8002 11.3356 25.1049 11.4281 25.4928 11.3682C25.8425 11.3138 26.0913 11.1933 26.239 11.006C26.3867 10.8194 26.4465 10.5567 26.4193 10.2178L27.5519 10.0414L27.5511 10.0429Z" fill="#0F0F11"/>
<path d="M33.1897 7.00513L32.6627 10.6321C32.5749 11.2345 32.3176 11.6838 31.8893 11.9792C31.4618 12.2745 30.9207 12.3748 30.2678 12.28C29.625 12.1867 29.1391 11.9418 28.8103 11.547C28.4815 11.1513 28.3572 10.6562 28.4357 10.06L28.9689 6.39105L30.1038 6.55584L29.5752 10.1906C29.5231 10.5512 29.5706 10.8264 29.7198 11.0168C29.8683 11.2073 30.0952 11.3247 30.4007 11.369C31.0389 11.4615 31.4112 11.1731 31.5193 10.5046L32.0517 6.83956L33.1905 7.00513H33.1897Z" fill="#0F0F11"/>
<path d="M35.6647 11.7413L34.84 11.3488L33.9655 13.1887L32.9301 12.6967L35.3196 7.67133L37.1867 8.55902C37.7805 8.84118 38.1754 9.19175 38.3713 9.60917C38.5672 10.0274 38.5509 10.4774 38.3216 10.9609C38.1583 11.3037 37.9485 11.554 37.6912 11.7126C37.4339 11.8712 37.1222 11.9465 36.756 11.9388L36.8664 14.5094L36.8439 14.5575L35.7323 14.029L35.6647 11.7413ZM35.2387 10.5101L36.0743 10.9073C36.334 11.0309 36.5672 11.0604 36.7724 10.9959C36.9776 10.9314 37.1362 10.7829 37.2465 10.5505C37.3592 10.3134 37.3802 10.095 37.3103 9.89522C37.2403 9.69545 37.0662 9.5291 36.7879 9.39696L35.9562 9.00131L35.2387 10.5093V10.5101Z" fill="#0F0F11"/>
<path d="M41.1704 15.198L39.5148 13.7475L38.533 14.8684L40.4763 16.5707L39.8692 17.2633L37.0631 14.8055L40.7297 10.6196L43.5296 13.0728L42.9178 13.7716L40.98 12.074L40.1063 13.0713L41.762 14.5217L41.1704 15.1972V15.198Z" fill="#0F0F11"/>
<path d="M9.62936 26.033L10.1945 27.7703H12.0212L10.5427 28.8438L11.1078 30.5811L9.62936 29.5076L8.15169 30.5811L8.71601 28.8438L7.23834 27.7703H9.06503L9.62936 26.033Z" fill="#0F0F11"/>
<path d="M10.5653 19.1709L11.1296 20.9082H12.9563L11.4786 21.9824L12.0429 23.719L10.5653 22.6455L9.0876 23.719L9.65193 21.9824L8.17426 20.9082H10.0009L10.5653 19.1709Z" fill="#0F0F11"/>
<path d="M11.0332 32.2709L11.5975 34.0082H13.4242L11.9465 35.0817L12.5108 36.819L11.0332 35.7455L9.55549 36.819L10.1198 35.0817L8.64215 34.0082H10.4688L11.0332 32.2709Z" fill="#0F0F11"/>
<path d="M45.6096 23.5767L45.2505 25.3677L43.4363 25.5799L45.029 26.4753L44.6699 28.2663L46.0131 27.028L47.605 27.9227L46.8432 26.2631L48.1864 25.0249L46.3714 25.2371L45.6096 23.5767Z" fill="#0F0F11"/>
<path d="M43.8832 16.8701L43.5249 18.661L41.7106 18.8732L43.3026 19.7679L42.9435 21.5588L44.2867 20.3213L45.8794 21.216L45.1168 19.5565L46.46 18.3182L44.6458 18.5304L43.8832 16.8701Z" fill="#0F0F11"/>
<path d="M44.9396 29.9359L44.5805 31.7268L42.7662 31.9391L44.359 32.8337L43.9998 34.6247L45.343 33.3864L46.9357 34.2819L46.1732 32.6215L47.5164 31.3833L45.7022 31.5955L44.9396 29.9359Z" fill="#0F0F11"/>
<path fill-rule="evenodd" clip-rule="evenodd" d="M24.0128 25.2541C24.0128 24.3991 23.998 23.5914 24.0159 22.7846C24.0672 20.476 25.8783 18.6407 28.2134 18.5171C30.3821 18.4013 32.4109 20.0757 32.7264 22.2521C32.7676 22.5382 32.7529 22.8328 32.7544 23.1235C32.7583 23.8169 32.7552 24.5102 32.7552 25.2541C33.0887 25.2541 33.3879 25.251 33.6864 25.2541C34.5516 25.2634 35.1089 25.8192 35.1097 26.6774C35.1112 28.8919 35.1112 31.1065 35.1097 33.3211C35.1097 34.1411 34.5485 34.7078 33.7338 34.7086C30.1909 34.7101 26.6479 34.7101 23.1049 34.7086C22.1876 34.7086 21.6536 34.166 21.6528 33.2418C21.6513 31.0653 21.6505 28.8888 21.6528 26.7124C21.6528 25.8083 22.2109 25.2588 23.1243 25.2549C23.4018 25.2533 23.6793 25.2549 24.0135 25.2549L24.0128 25.2541ZM31.0778 25.2456C31.0778 24.4309 31.0848 23.6497 31.0762 22.8685C31.0622 21.5665 30.0548 20.4169 28.7824 20.2412C27.4601 20.0586 26.225 20.8242 25.8356 22.0873C25.7516 22.361 25.7034 22.6556 25.6964 22.9416C25.6778 23.7065 25.6902 24.4729 25.6902 25.2463H31.0778V25.2456ZM28.3797 32.3292C28.5189 32.3292 28.658 32.3308 28.7964 32.3292C29.2604 32.3238 29.433 32.1201 29.3615 31.6607C29.3032 31.2868 29.2604 30.9091 29.1733 30.5422C29.1057 30.2554 29.171 30.0657 29.3801 29.8511C29.869 29.3521 29.831 28.5437 29.3366 28.0392C28.8282 27.5208 28.0431 27.4951 27.4951 27.9794C26.9697 28.4442 26.8538 29.2752 27.342 29.7742C27.6553 30.0944 27.6382 30.3906 27.5659 30.7497C27.5332 30.9106 27.5169 31.0739 27.478 31.2332C27.2246 32.2779 27.5293 32.3821 28.3782 32.33L28.3797 32.3292Z" fill="#F7F8F8"/>
</g>
<defs>
<clipPath id="clip0_1_74">
<rect width="56" height="56" fill="white"/>
</clipPath>
</defs>
</svg>
