<svg width="56" height="56" viewBox="0 0 56 56" fill="none" xmlns="http://www.w3.org/2000/svg">
<g clip-path="url(#clip0_1_38)">
<path d="M56 28.0004C56 30.4303 53.9899 32.5632 53.3906 34.805C52.771 37.1237 53.4271 39.9734 52.2518 42.0037C51.0602 44.0628 48.2533 44.9124 46.5821 46.5836C44.9108 48.2548 44.0612 51.0617 42.0021 52.2533C39.9718 53.4279 37.1229 52.7718 34.8042 53.3913C32.5632 53.9906 30.4303 56.0008 28.0004 56.0008C25.5705 56.0008 23.4376 53.9906 21.1958 53.3913C18.8771 52.7718 16.0274 53.4279 13.9979 52.2533C11.9388 51.0617 11.0892 48.2548 9.41793 46.5836C7.74671 44.9124 4.93983 44.0628 3.74821 42.0037C2.57369 39.9734 3.22974 37.1245 2.60944 34.8058C2.01013 32.5632 0 30.4303 0 28.0004C0 25.5705 2.01013 23.4376 2.60944 21.1958C3.22896 18.8771 2.57291 16.0274 3.74821 13.9971C4.93983 11.938 7.74671 11.0884 9.41793 9.41715C11.0892 7.74593 11.9388 4.93905 13.9979 3.74743C16.0282 2.57291 18.8771 3.22896 21.1958 2.60944C23.4368 2.01013 25.5705 0 28.0004 0C30.4303 0 32.5632 2.01013 34.8042 2.60944C37.1229 3.22896 39.9726 2.57291 42.0029 3.74743C44.062 4.93905 44.9116 7.74593 46.5828 9.41715C48.2541 11.0884 51.0609 11.938 52.2526 13.9971C53.4271 16.0274 52.771 18.8763 53.3913 21.195C53.9906 23.436 56.0008 25.569 56.0008 27.9996L56 28.0004Z" fill="#0F0F11"/>
<path d="M44.9457 44.9459C54.3045 35.5871 54.3045 20.4136 44.9457 11.0548C35.587 1.6961 20.4135 1.6961 11.0547 11.0549C1.69596 20.4136 1.69596 35.5871 11.0547 44.9459C20.4135 54.3046 35.587 54.3046 44.9457 44.9459Z" fill="#BCBEC0"/>
<path d="M28.0004 50.8464C40.6179 50.8464 50.8464 40.6179 50.8464 28.0004C50.8464 15.3829 40.6179 5.15436 28.0004 5.15436C15.3829 5.15436 5.15436 15.3829 5.15436 28.0004C5.15436 40.6179 15.3829 50.8464 28.0004 50.8464Z" fill="#FEFEFE"/>
<path d="M37.9793 37.9009C43.4907 32.3895 43.4907 23.4537 37.9793 17.9422C32.4678 12.4308 23.532 12.4308 18.0206 17.9422C12.5092 23.4537 12.5092 32.3895 18.0206 37.9009C23.532 43.4123 32.4678 43.4123 37.9793 37.9009Z" fill="#0F0F11"/>
<path d="M10.0678 38.8727C9.75609 38.7903 9.45916 38.6076 9.17622 38.3231C8.89328 38.0394 8.65386 37.6896 8.46031 37.2737C8.25665 36.8376 8.17271 36.4101 8.20924 35.9927C8.24577 35.5745 8.40357 35.1913 8.68262 34.8431C8.9609 34.4948 9.34412 34.2041 9.83149 33.9701L10.1743 33.81C10.6772 33.5745 11.1529 33.4556 11.5999 33.4532C12.0468 33.4509 12.4433 33.5636 12.7876 33.7921C13.132 34.0207 13.4048 34.3495 13.6054 34.7785C13.8852 35.3763 13.9606 35.9103 13.8331 36.3806C13.7056 36.8509 13.3838 37.245 12.8685 37.5613L12.3958 36.55C12.6632 36.3689 12.8265 36.1684 12.8863 35.9476C12.9462 35.7269 12.9112 35.4781 12.7822 35.2014C12.6174 34.8485 12.3585 34.6417 12.0072 34.5811C11.6551 34.5205 11.2167 34.6114 10.692 34.8539L10.3702 35.0047C9.8416 35.2519 9.48947 35.5388 9.31302 35.866C9.13657 36.1933 9.13968 36.5508 9.3208 36.9387C9.50347 37.3289 9.71645 37.5683 9.96053 37.6562L10.8296 37.2496L10.388 36.3044L11.1529 35.9468L12.0803 37.9305L10.0686 38.8711L10.0678 38.8727Z" fill="#0F0F11"/>
<path d="M17.4771 40.2244L14.7418 42.6636C14.287 43.0686 13.8012 43.2474 13.2835 43.1984C12.7658 43.1502 12.287 42.8797 11.8478 42.3869C11.4156 41.9018 11.2003 41.4028 11.2027 40.8882C11.205 40.3744 11.4281 39.9143 11.8719 39.5085L14.6384 37.0405L15.4017 37.8964L12.6609 40.341C12.3888 40.5835 12.2489 40.8253 12.2404 41.067C12.2318 41.3088 12.3305 41.5443 12.5357 41.7744C12.9648 42.2555 13.4359 42.2742 13.9481 41.8303L16.7123 39.3655L17.4779 40.2236L17.4771 40.2244Z" fill="#0F0F11"/>
<path d="M18.0104 45.8195L16.3081 44.7507L15.3745 45.5187L14.3422 44.8704L19.0559 41.259L19.9552 41.8241L18.7605 47.6447L17.7282 46.9964L18.0111 45.8203L18.0104 45.8195ZM17.0644 44.1281L18.2428 44.8681L18.7581 42.732L17.0652 44.1281H17.0644Z" fill="#0F0F11"/>
<path d="M22.7015 46.7857L21.8231 46.5347L21.2634 48.4935L20.1612 48.1787L21.6894 42.8284L23.677 43.3966C24.3089 43.577 24.7567 43.8576 25.0186 44.2369C25.2814 44.617 25.3389 45.064 25.192 45.5786C25.0878 45.9439 24.9215 46.2253 24.6937 46.4243C24.466 46.6233 24.1714 46.7484 23.8091 46.8013L24.3424 49.3182L24.3276 49.3695L23.1445 49.0314L22.7007 46.7865L22.7015 46.7857ZM22.0788 45.6415L22.9681 45.8957C23.2448 45.975 23.4795 45.9657 23.6715 45.8685C23.8635 45.7713 23.9949 45.5988 24.0656 45.3508C24.1379 45.0982 24.1224 44.8798 24.0206 44.694C23.9187 44.5082 23.7197 44.3737 23.4228 44.289L22.5374 44.0364L22.0788 45.6423V45.6415Z" fill="#0F0F11"/>
<path d="M29.1089 48.3987L27.0987 48.4111L26.7233 49.56L25.5045 49.567L27.5418 43.9897L28.6044 43.9835L30.721 49.5351L29.5022 49.5421L29.1096 48.3979L29.1089 48.3987ZM27.4027 47.4807L28.794 47.4721L28.082 45.3936L27.4027 47.4807Z" fill="#0F0F11"/>
<path d="M36.5742 47.9012L35.4797 48.2416L32.2609 45.4091L33.3491 48.9047L32.2546 49.2452L30.6005 43.9322L31.695 43.5918L34.9201 46.4305L33.8295 42.9271L34.9208 42.5875L36.575 47.9004L36.5742 47.9012Z" fill="#0F0F11"/>
<path d="M39.1968 40.8867L37.7728 41.8234L40.32 45.6967L39.3624 46.3264L36.8151 42.453L35.4105 43.3772L34.8998 42.6015L38.6869 40.111L39.1976 40.8867H39.1968Z" fill="#0F0F11"/>
<path d="M43.3158 39.594L41.8444 41.2311L42.9528 42.2276L44.68 40.3061L45.3648 40.9217L42.8712 43.6959L38.7328 39.9757L41.221 37.2069L41.912 37.828L40.1902 39.7441L41.1767 40.6302L42.6481 38.9932L43.3158 39.5933V39.594Z" fill="#0F0F11"/>
<path d="M45.6555 35.5753L44.6155 37.5155L45.9291 38.2197L47.1503 35.943L47.9618 36.3783L46.1989 39.6655L41.2948 37.0359L43.0539 33.7556L43.8724 34.1948L42.6551 36.4646L43.8242 37.0911L44.8642 35.1509L45.6555 35.5753Z" fill="#0F0F11"/>
<path d="M7.39535 22.2599L11.676 22.2047L8.31181 19.5603L8.79607 18.1347L14.0647 19.9249L13.6947 21.0139L12.2543 20.5249L9.80503 19.572L13.2485 22.3275L12.9951 23.073L8.59009 23.1593L11.1094 23.8938L12.5497 24.3828L12.1805 25.4687L6.91187 23.6785L7.3938 22.2599H7.39535Z" fill="#0F0F11"/>
<path d="M15.3077 14.2699C15.7313 14.6174 16.0407 14.9975 16.2365 15.4087C16.4324 15.8206 16.5024 16.2365 16.4472 16.657C16.3912 17.0783 16.2156 17.4685 15.9194 17.8292C15.6264 18.1852 15.2797 18.4332 14.8794 18.5723C14.4783 18.7115 14.0562 18.727 13.6116 18.619C13.1677 18.5117 12.7379 18.2886 12.3228 17.9513L12.1106 17.7764C11.6877 17.4289 11.3776 17.0465 11.1809 16.629C10.9842 16.2124 10.9143 15.7934 10.971 15.3737C11.0278 14.9539 11.2034 14.5645 11.4973 14.2062C11.7919 13.8478 12.1393 13.5999 12.5404 13.463C12.9415 13.3262 13.3659 13.313 13.8129 13.425C14.2598 13.5369 14.6944 13.7662 15.1157 14.1121L15.3077 14.2699ZM14.3749 15.0076C13.924 14.6376 13.5152 14.4362 13.1483 14.4051C12.7814 14.3741 12.4751 14.5085 12.2295 14.8078C11.9854 15.1047 11.9124 15.4296 12.0111 15.781C12.1098 16.1323 12.3818 16.493 12.8273 16.8615L13.0371 17.034C13.4763 17.3947 13.8828 17.5937 14.2575 17.631C14.6322 17.6683 14.9439 17.5354 15.1934 17.2322C15.4375 16.9353 15.5082 16.6104 15.4064 16.2598C15.3038 15.9085 15.0302 15.5486 14.5848 15.1794L14.3749 15.0068V15.0076Z" fill="#0F0F11"/>
<path d="M21.5293 13.2548L20.56 13.8673L16.7169 11.9652L18.6734 15.0597L17.7041 15.6722L14.7309 10.9687L15.7002 10.3562L19.5502 12.2629L17.5899 9.16144L18.5561 8.55048L21.5293 13.254V13.2548Z" fill="#0F0F11"/>
<path d="M24.7263 9.84933L22.605 10.4385L23.0038 11.875L25.4935 11.184L25.7399 12.0717L22.1456 13.0697L20.6563 7.70784L24.2428 6.7121L24.4916 7.60679L22.0096 8.29626L22.3641 9.57417L24.4854 8.98496L24.7255 9.85011L24.7263 9.84933Z" fill="#0F0F11"/>
<path d="M27.9242 8.98418L29.0412 6.45869L30.2942 6.43848L28.525 10.0141L28.5577 12.032L27.3925 12.0507L27.3599 10.0328L25.4756 6.51621L26.7326 6.496L27.9234 8.98418H27.9242Z" fill="#0F0F11"/>
<path d="M32.3168 12.5093L34.5003 7.39069L36.2928 8.15556C36.9138 8.42063 37.3344 8.7401 37.5536 9.11554C37.7728 9.49021 37.7852 9.90763 37.5893 10.367C37.4821 10.6181 37.3235 10.8109 37.1136 10.9469C36.903 11.0829 36.6643 11.1467 36.3969 11.1373C36.6317 11.3153 36.7817 11.5353 36.8478 11.7996C36.9139 12.0631 36.8851 12.3391 36.7623 12.6274C36.5524 13.1195 36.236 13.425 35.814 13.5447C35.3919 13.6636 34.8897 13.6014 34.306 13.3589L32.316 12.5101L32.3168 12.5093ZM34.3223 10.73L33.7331 12.1113L34.6363 12.4969C34.8851 12.6026 35.1043 12.6267 35.2939 12.5676C35.4836 12.5085 35.6235 12.3748 35.7121 12.1665C35.9119 11.6978 35.7712 11.3565 35.2885 11.1428L34.3215 10.73H34.3223ZM34.6402 9.98458L35.4206 10.3173C35.957 10.5349 36.313 10.4362 36.4902 10.0211C36.5889 9.78948 36.5928 9.59359 36.5019 9.43424C36.4109 9.27489 36.2197 9.13342 35.929 9.00905L35.1905 8.69424L34.6402 9.98458Z" fill="#0F0F11"/>
<path d="M39.6725 15.5502L38.1405 14.2482L37.1066 14.8747L36.1777 14.0849L41.3593 11.1855L42.1693 11.8735L40.1537 17.4624L39.2248 16.6726L39.6733 15.5486L39.6725 15.5502ZM38.9784 13.7414L40.0387 14.6423L40.8548 12.6018L38.9792 13.7414H38.9784Z" fill="#0F0F11"/>
<path d="M44.0543 20.2607C43.5257 20.5459 43.0095 20.6128 42.5051 20.462C42.0006 20.3104 41.5731 19.9598 41.2225 19.4103C40.8393 18.8086 40.7398 18.2062 40.9248 17.6038C41.1098 17.0006 41.556 16.4736 42.2625 16.0235L42.5494 15.8408C43.001 15.5532 43.4487 15.3791 43.8941 15.3193C44.3387 15.2594 44.7476 15.3177 45.1199 15.4965C45.4923 15.6745 45.8024 15.959 46.0519 16.3508C46.3971 16.8918 46.53 17.4204 46.4515 17.9365C46.3722 18.4518 46.0869 18.9027 45.5957 19.289L44.9793 18.322C45.2669 18.1052 45.4332 17.8813 45.4767 17.6489C45.521 17.4172 45.448 17.153 45.2591 16.856C45.0539 16.5334 44.7841 16.3663 44.4515 16.3539C44.1188 16.3414 43.7076 16.4876 43.2194 16.7923L42.865 17.0185C42.3582 17.3418 42.0363 17.6551 41.9003 17.9575C41.7643 18.2606 41.8016 18.577 42.0122 18.9081C42.2027 19.2066 42.4133 19.3862 42.6434 19.446C42.8735 19.5059 43.1386 19.4561 43.4378 19.2952L44.0543 20.2622V20.2607Z" fill="#0F0F11"/>
<path d="M45.2225 22.7115L44.4444 22.3089L42.9123 22.7333L42.6061 21.628L47.9688 20.1425L48.275 21.2471L45.8444 21.9202L46.6458 22.2218L48.7888 23.0994L49.1658 24.4582L46.2556 23.2145L43.8187 25.9996L43.4541 24.6851L45.2233 22.7115H45.2225Z" fill="#0F0F11"/>
<path d="M23.0567 25.3443H23.9941C24.4403 25.3443 24.7714 25.2324 24.9867 25.0093C25.2021 24.7862 25.3093 24.4901 25.3093 24.1208C25.3093 23.7516 25.2028 23.4858 24.9898 23.2868C24.7769 23.0878 24.4838 22.9883 24.1099 22.9883C23.7733 22.9883 23.4912 23.0808 23.2634 23.265C23.0365 23.45 22.9222 23.6902 22.9222 23.9864H21.1631C21.1631 23.5239 21.2875 23.1088 21.5378 22.7411C21.7873 22.3742 22.1363 22.0866 22.5848 21.8799C23.0333 21.6731 23.5277 21.5697 24.0672 21.5697C25.0046 21.5697 25.7392 21.7943 26.2709 22.2421C26.8025 22.6906 27.0684 23.3086 27.0684 24.096C27.0684 24.5017 26.9448 24.8756 26.6968 25.2161C26.4496 25.5573 26.1247 25.8185 25.7229 26.0012C26.2219 26.1799 26.5942 26.4473 26.8398 26.8049C27.0855 27.1625 27.2083 27.5838 27.2083 28.0712C27.2083 28.8586 26.9215 29.4897 26.347 29.9647C25.7726 30.4396 25.0124 30.6767 24.0672 30.6767C23.1826 30.6767 22.4589 30.4435 21.8969 29.9763C21.3349 29.51 21.0535 28.8928 21.0535 28.1256H22.8126C22.8126 28.4583 22.9377 28.7303 23.1873 28.9417C23.4368 29.1532 23.7446 29.2581 24.1099 29.2581C24.5281 29.2581 24.8554 29.1477 25.0932 28.9262C25.3311 28.7054 25.4492 28.4116 25.4492 28.0463C25.4492 27.1617 24.9626 26.7194 23.9879 26.7194H23.0567V25.3436V25.3443Z" fill="#FEFEFE"/>
<path d="M34.386 26.8904C34.386 28.1162 34.1326 29.0537 33.625 29.7027C33.1175 30.3518 32.3751 30.6767 31.3973 30.6767C30.4194 30.6767 29.6926 30.358 29.1811 29.7206C28.6697 29.0832 28.4077 28.1706 28.3961 26.9814V25.3498C28.3961 24.1123 28.6526 23.1725 29.1664 22.5312C29.6794 21.89 30.4194 21.5697 31.3856 21.5697C32.3518 21.5697 33.0903 21.8876 33.6017 22.5227C34.1132 23.1578 34.3752 24.0703 34.3868 25.2588V26.8904H34.386ZM32.6262 25.0964C32.6262 24.361 32.5259 23.8255 32.3246 23.4904C32.1241 23.1554 31.81 22.9875 31.3841 22.9875C30.9581 22.9875 30.665 23.1469 30.4676 23.4663C30.2709 23.785 30.166 24.2841 30.1543 24.9619V27.1189C30.1543 27.8418 30.2531 28.3797 30.4497 28.7311C30.6464 29.0824 30.962 29.2581 31.3965 29.2581C31.831 29.2581 32.1373 29.0894 32.3277 28.7521C32.5182 28.4147 32.6176 27.8994 32.6262 27.2044V25.0964Z" fill="#FEFEFE"/>
<path d="M21.5441 36.2415V32.3052H22.6548C22.9969 32.3052 23.3 32.3806 23.5627 32.5322C23.8262 32.6837 24.0291 32.899 24.1721 33.1781C24.3152 33.4572 24.3882 33.7782 24.3898 34.1404V34.3915C24.3898 34.763 24.3183 35.088 24.1745 35.367C24.0315 35.6461 23.827 35.8606 23.5612 36.0106C23.2953 36.1599 22.986 36.2368 22.6323 36.2407H21.5433L21.5441 36.2415ZM22.0633 32.7296V35.8171H22.609C23.0093 35.8171 23.3202 35.6927 23.5433 35.444C23.7656 35.1952 23.8768 34.8408 23.8768 34.3806V34.1505C23.8768 33.7036 23.7718 33.3553 23.562 33.1074C23.3521 32.8594 23.0544 32.7335 22.6688 32.7296H22.0633Z" fill="#FEFEFE"/>
<path d="M27.2915 35.2115H25.6428L25.272 36.2415H24.7365L26.2398 32.3052H26.6937L28.1994 36.2415H27.6669L27.2915 35.2115ZM25.799 34.7871H27.1368L26.4667 32.9465L25.799 34.7871Z" fill="#FEFEFE"/>
<path d="M29.6755 34.2811L30.7023 32.3052H31.2915L29.9344 34.7731V36.2407H29.4151V34.7731L28.0579 32.3052H28.6526L29.6747 34.2811H29.6755Z" fill="#FEFEFE"/>
<path d="M32.9169 34.4871C32.4715 34.3588 32.1482 34.2018 31.9453 34.0153C31.7424 33.8287 31.6414 33.5986 31.6414 33.3242C31.6414 33.0141 31.7649 32.7583 32.0129 32.5555C32.2609 32.3526 32.5827 32.2515 32.9791 32.2515C33.2496 32.2515 33.4906 32.3036 33.702 32.4085C33.9134 32.5135 34.0775 32.6573 34.1941 32.8407C34.3106 33.0242 34.3682 33.2255 34.3682 33.4431H33.8466C33.8466 33.2045 33.7712 33.0164 33.6196 32.8804C33.468 32.7443 33.2543 32.6759 32.9791 32.6759C32.7234 32.6759 32.5236 32.7319 32.3806 32.8454C32.2376 32.9581 32.166 33.1151 32.166 33.3149C32.166 33.4758 32.2344 33.6118 32.3697 33.7222C32.5057 33.8334 32.7374 33.9344 33.0646 34.0269C33.3919 34.1186 33.6476 34.2205 33.8326 34.3316C34.0176 34.4428 34.1544 34.5718 34.2438 34.7195C34.3332 34.8672 34.3775 35.0413 34.3775 35.2411C34.3775 35.5598 34.2531 35.8155 34.0044 36.0075C33.7556 36.1995 33.423 36.2951 33.0071 36.2951C32.7366 36.2951 32.4847 36.243 32.25 36.1396C32.016 36.0363 31.8349 35.894 31.7082 35.7137C31.5815 35.5333 31.5178 35.3289 31.5178 35.0996H32.0393C32.0393 35.3375 32.1272 35.5256 32.3028 35.6632C32.4785 35.8007 32.7133 35.8699 33.0071 35.8699C33.2807 35.8699 33.4914 35.814 33.6367 35.702C33.7829 35.5901 33.8559 35.4377 33.8559 35.245C33.8559 35.0522 33.7883 34.9029 33.653 34.798C33.5178 34.6923 33.2729 34.5881 32.9177 34.4855L32.9169 34.4871Z" fill="#FEFEFE"/>
<path d="M9.0549 26.9222L9.61923 28.6595H11.4459L9.96824 29.733L10.5326 31.4703L9.0549 30.3968L7.57722 31.4703L8.14155 29.733L6.66388 28.6595H8.49057L9.0549 26.9222Z" fill="#0F0F11"/>
<path d="M46.757 26.9222L47.3221 28.6595H49.148L47.6703 29.733L48.2347 31.4703L46.757 30.3968L45.2793 31.4703L45.8436 29.733L44.366 28.6595H46.1927L46.757 26.9222Z" fill="#0F0F11"/>
</g>
<defs>
<clipPath id="clip0_1_38">
<rect width="56" height="56" fill="white"/>
</clipPath>
</defs>
</svg>
