<svg width="30" height="30" viewBox="0 0 30 30" fill="none" xmlns="http://www.w3.org/2000/svg">
<path fill-rule="evenodd" clip-rule="evenodd" d="M27.8733 21.7517V19.5849H27.3504V20.8417C27.1703 20.6099 26.8896 20.4789 26.5963 20.4899C25.9021 20.4899 25.3394 21.0525 25.3394 21.7467C25.3394 22.4408 25.9021 23.0035 26.5963 23.0035C26.8896 23.0144 27.1703 22.8834 27.3504 22.6516V22.9432H27.8733V21.7517ZM12.2782 20.5502H13.1329V21.0202H12.2832V22.1263C12.2832 22.3675 12.3787 22.5284 12.6301 22.5284C12.7934 22.5161 12.9507 22.4625 13.0876 22.3726L13.2384 22.82C13.0424 22.9423 12.8158 23.0068 12.5848 23.0061C11.9664 23.0061 11.7503 22.6742 11.7503 22.1162V21.0202H11.2627V20.5502H11.7503V19.8212H12.2782V20.5502ZM5.3252 22.9608V21.4526C5.34301 21.196 5.24951 20.9441 5.06858 20.7613C4.88765 20.5784 4.63689 20.4823 4.38008 20.4973C4.0417 20.4751 3.71805 20.6389 3.53544 20.9247C3.36905 20.6475 3.06423 20.4834 2.74114 20.4973C2.45981 20.4831 2.192 20.619 2.03726 20.8543V20.5577H1.5144V22.9608H2.04229V21.6285C2.01955 21.4621 2.07231 21.2943 2.18612 21.1708C2.29985 21.0473 2.46279 20.981 2.63049 20.9901C2.97744 20.9901 3.15334 21.2163 3.15334 21.6235V22.9608H3.68123V21.6285C3.65942 21.4623 3.71246 21.2951 3.82609 21.1717C3.93963 21.0485 4.10201 20.9819 4.26943 20.9901C4.62645 20.9901 4.79732 21.2163 4.79732 21.6235V22.9608H5.3252ZM26.0583 27.9178H25.5783L25.5808 25.0924H25.2238V29.6171H25.6008V28.2321H26.081L27.3378 29.6171H27.7928L26.36 28.0561L27.7676 26.661H27.3152L26.0583 27.9178ZM15.2745 26.9299C15.1941 27.0034 15.1247 27.0881 15.0684 27.1813L15.0558 25.1075H14.6989V29.6322H15.0558V27.948C15.0546 27.8117 15.0811 27.6766 15.1338 27.5508C15.1826 27.4339 15.2544 27.3279 15.3449 27.2391C15.435 27.1516 15.5419 27.0832 15.6591 27.0381C15.7826 26.9905 15.9139 26.9667 16.0462 26.9677C16.1831 26.965 16.3194 26.9872 16.4484 27.033C16.561 27.0739 16.6632 27.1391 16.7475 27.224C16.8316 27.3102 16.8953 27.4141 16.9336 27.5282C16.9771 27.6578 16.9983 27.7938 16.9964 27.9304V29.6322H17.3559V27.8198C17.3589 27.6479 17.3283 27.4771 17.2654 27.3171C17.2101 27.1753 17.1243 27.0474 17.014 26.9425C16.8999 26.8377 16.7655 26.7574 16.6194 26.7062C16.4578 26.6496 16.2877 26.6215 16.1166 26.6232C16.0151 26.6233 15.9141 26.6343 15.815 26.656C15.715 26.6779 15.6179 26.7116 15.5258 26.7565C15.4345 26.8024 15.3498 26.8608 15.2745 26.9299ZM11.9959 25.1704C12.1773 25.1706 12.358 25.1916 12.5346 25.2332C12.7088 25.2731 12.8776 25.3339 13.0373 25.4142C13.188 25.4907 13.3282 25.5861 13.4546 25.6983C13.5784 25.8082 13.6858 25.9351 13.7738 26.0753L13.4546 26.289C13.3791 26.1736 13.2886 26.0688 13.1856 25.9772C13.082 25.8846 12.9671 25.8052 12.8437 25.7409C12.7162 25.6753 12.5811 25.6255 12.4416 25.5926C12.2959 25.5575 12.1465 25.5398 11.9966 25.5399C11.7464 25.5377 11.498 25.5839 11.2652 25.6756C11.0452 25.7617 10.845 25.8917 10.6769 26.0577C10.5079 26.2273 10.3745 26.429 10.2848 26.6509C10.0939 27.1442 10.0939 27.691 10.2848 28.1843C10.3745 28.4063 10.5078 28.608 10.6769 28.7775C10.845 28.9435 11.0452 29.0735 11.2652 29.1596C11.498 29.2514 11.7464 29.2975 11.9966 29.2953C12.1455 29.2958 12.294 29.2789 12.4391 29.2451C12.7187 29.1837 12.9782 29.0522 13.1932 28.863C13.2968 28.7711 13.3874 28.6653 13.4621 28.5487L13.7763 28.7775C13.685 28.9144 13.5759 29.0387 13.452 29.147C13.3259 29.2569 13.1867 29.3507 13.0373 29.4261C12.8826 29.5051 12.7188 29.565 12.5496 29.6045C12.0714 29.7135 11.5715 29.6767 11.1143 29.499C10.848 29.3937 10.6054 29.2364 10.4004 29.0364C10.1964 28.8337 10.0356 28.5917 9.92788 28.325C9.69969 27.7407 9.69969 27.0919 9.92788 26.5077C10.0356 26.241 10.1964 25.999 10.4004 25.7962C10.6054 25.5963 10.848 25.439 11.1143 25.3338C11.3951 25.2237 11.6943 25.1682 11.9959 25.1704ZM4.913 25.2206C5.24942 25.2156 5.58425 25.2674 5.90334 25.374C6.18271 25.4662 6.43961 25.6161 6.65746 25.8138C6.86496 26.0074 7.02716 26.2442 7.13259 26.5077C7.35454 27.0958 7.35454 27.7445 7.13259 28.3326C7.02725 28.596 6.86505 28.833 6.65746 29.0264C6.43961 29.2241 6.18271 29.374 5.90334 29.4663C5.58425 29.5728 5.24942 29.6246 4.913 29.6196H3.30669V25.2206H4.913ZM1.60492 29.6196H1.98953V25.2206H1.60492V29.6196ZM28.2503 29.4713H28.195V29.6196H28.1674V29.4713H28.1121V29.4436H28.2528L28.2503 29.4713ZM28.4665 29.6196H28.4388V29.4763L28.3886 29.602H28.3584L28.3081 29.4763V29.6196H28.2804V29.4436H28.3232L28.3735 29.5694L28.4238 29.4436H28.4665V29.6196ZM3.6913 29.2551V25.5851L4.91552 25.5901C5.20309 25.5851 5.48945 25.6284 5.76258 25.7183C5.99282 25.7958 6.20377 25.9218 6.38098 26.0878C6.54961 26.2504 6.67937 26.4488 6.76056 26.6685C6.93087 27.1568 6.93087 27.6884 6.76056 28.1767C6.67946 28.3958 6.5497 28.5935 6.38098 28.7549C6.20331 28.9204 5.99254 29.0463 5.76258 29.1244C5.48889 29.2161 5.2016 29.2603 4.913 29.2551H3.6913ZM19.7036 26.6232C19.892 26.6214 20.0787 26.6591 20.2517 26.7339C20.4176 26.8062 20.5665 26.9124 20.689 27.0456C20.8158 27.1848 20.9147 27.3469 20.9806 27.5232C21.0539 27.7176 21.0914 27.9237 21.0913 28.1315V28.2094V28.2798H18.6127C18.6224 28.4382 18.6617 28.5934 18.7284 28.7373C18.7888 28.8667 18.8742 28.9829 18.9797 29.0791C19.0829 29.1721 19.2033 29.2439 19.3341 29.2904C19.4704 29.3392 19.6142 29.3639 19.759 29.3633C19.9502 29.3664 20.1398 29.3278 20.3145 29.2501C20.4788 29.1736 20.6286 29.069 20.7569 28.9409L20.948 29.1923C20.861 29.2809 20.765 29.3602 20.6614 29.4286C20.5674 29.4895 20.4672 29.5401 20.3623 29.5794C20.2623 29.6163 20.1586 29.6424 20.0531 29.6574C19.9481 29.6721 19.8423 29.6796 19.7364 29.6799C19.5325 29.6823 19.33 29.6448 19.1406 29.5694C18.9642 29.4987 18.8043 29.3926 18.6705 29.2576C18.5367 29.1202 18.4323 28.9568 18.3638 28.7775C18.2884 28.5802 18.2509 28.3704 18.2533 28.1592C18.2509 27.9495 18.2884 27.7414 18.3638 27.5458C18.4298 27.3633 18.5315 27.1959 18.663 27.0532C18.7948 26.917 18.9531 26.8091 19.128 26.7364C19.313 26.6567 19.5124 26.6156 19.7137 26.6157L19.7036 26.6232ZM19.2914 27.0179C19.4224 26.9653 19.5625 26.9388 19.7036 26.94C19.9663 26.9382 20.2188 27.0414 20.405 27.2265C20.4984 27.3199 20.5734 27.4298 20.6262 27.5508C20.6841 27.684 20.719 27.8258 20.7293 27.9706H18.6152C18.6303 27.8269 18.6694 27.6867 18.7308 27.5559C18.7878 27.4347 18.8661 27.3248 18.9621 27.2316C19.0573 27.14 19.169 27.0675 19.2914 27.0179ZM23.2832 26.6232C23.4926 26.6214 23.7004 26.6616 23.894 26.7414C24.0779 26.8174 24.2422 26.9343 24.3742 27.0833L24.1429 27.3347C24.0314 27.222 23.9003 27.1308 23.7558 27.0657C23.6043 27.0002 23.4407 26.9677 23.2757 26.9702C23.1211 26.9694 22.968 27.0002 22.8257 27.0606C22.6895 27.1193 22.5663 27.2048 22.4637 27.312C22.3554 27.4195 22.2699 27.5478 22.2124 27.6891C22.0971 27.9961 22.0971 28.3347 22.2124 28.6418C22.3202 28.9224 22.5382 29.1468 22.8157 29.2627C22.9578 29.3234 23.111 29.3541 23.2656 29.3532C23.4327 29.3551 23.5981 29.3208 23.7507 29.2526C23.8962 29.1876 24.0289 29.0974 24.1429 28.9862L24.3666 29.2375C24.234 29.3858 24.07 29.5025 23.8865 29.5794C23.6937 29.6592 23.4868 29.6994 23.2781 29.6975C23.0689 29.7001 22.8613 29.6607 22.6674 29.5819C22.3047 29.4345 22.0184 29.1446 21.8755 28.78C21.7269 28.3899 21.7269 27.9587 21.8755 27.5685C22.0176 27.2028 22.3039 26.9117 22.6674 26.764C22.8619 26.6726 23.0733 26.6221 23.2882 26.6157L23.2832 26.6232ZM17.5922 20.4899C17.3325 20.4822 17.0894 20.6172 16.9587 20.8417V20.5502H16.4409V22.9533H16.9637V21.6059C16.9637 21.2087 17.1347 20.9875 17.4664 20.9875C17.5783 20.9859 17.6893 21.0065 17.7932 21.0478L17.9541 20.5451C17.8347 20.5024 17.7089 20.4802 17.5821 20.4798L17.5922 20.4899ZM9.87 20.4899C10.2142 20.4779 10.5544 20.5652 10.8504 20.7412L10.6191 21.1635C10.3895 21.0314 10.1299 20.9604 9.86496 20.9573C9.57841 20.9573 9.40745 21.078 9.40745 21.2389C9.40745 21.3997 9.58848 21.445 9.81472 21.4752L10.0661 21.5104C10.589 21.5858 10.9056 21.7718 10.9056 22.2293C10.9056 22.6868 10.5035 23.0136 9.80968 23.0136C9.4384 23.0238 9.07355 22.9145 8.76901 22.7019L9.02042 22.2946C9.25104 22.4658 9.53264 22.5543 9.81975 22.546C10.1767 22.546 10.3678 22.4404 10.3678 22.2544C10.3678 22.1187 10.232 22.0433 9.94541 22.003L9.6941 21.9679C9.15614 21.8925 8.86456 21.6511 8.86456 21.259C8.86456 20.7814 9.26166 20.4899 9.87 20.4899ZM24.8542 20.4899C24.5946 20.4822 24.3515 20.6172 24.2208 20.8417V20.5502H23.703V22.9533H24.2259V21.6059C24.2259 21.2087 24.3968 20.9875 24.7286 20.9875C24.8404 20.9859 24.9515 21.0065 25.0554 21.0478L25.2163 20.5451C25.0969 20.5024 24.971 20.4802 24.8443 20.4798L24.8542 20.4899ZM18.4808 22.6584C18.2369 22.4191 18.105 22.0881 18.1176 21.7467V21.7366C18.105 21.3952 18.2369 21.0642 18.4808 20.825C18.7249 20.5858 19.0584 20.4604 19.3995 20.4798C19.7134 20.4637 20.022 20.566 20.2642 20.7663L20.0128 21.1886C19.8321 21.0508 19.6117 20.975 19.3845 20.9724C18.9836 21.0049 18.675 21.3395 18.675 21.7417C18.675 22.1437 18.9836 22.4784 19.3845 22.5108C19.6117 22.5083 19.8321 22.4325 20.0128 22.2946L20.2642 22.717C20.022 22.9172 19.7134 23.0195 19.3995 23.0035C19.0584 23.0228 18.7249 22.8975 18.4808 22.6584ZM23.0142 21.7467V20.5451H22.4914V20.8367C22.3113 20.6049 22.0306 20.474 21.7373 20.4848C21.0432 20.4848 20.4804 21.0475 20.4804 21.7417C20.4804 22.4358 21.0432 22.9985 21.7373 22.9985C22.0306 23.0093 22.3113 22.8783 22.4914 22.6466V22.9382H23.0142V21.7467ZM21.8211 21.0634C21.4262 21.0486 21.0919 21.3522 21.0686 21.7467C21.0553 21.9475 21.1264 22.1447 21.2648 22.2907C21.4033 22.4368 21.5964 22.5184 21.7976 22.5158C22.1928 22.5138 22.5138 22.1963 22.5202 21.8011C22.5266 21.406 22.2159 21.0782 21.8211 21.0634ZM14.7592 20.4899C14.065 20.4995 13.5102 21.0701 13.5199 21.7642C13.5297 22.4584 14.1003 23.0132 14.7944 23.0035C15.1531 23.0161 15.5038 22.8962 15.7798 22.6667L15.5284 22.2796C15.3299 22.4387 15.084 22.5272 14.8296 22.5309C14.4703 22.5619 14.1515 22.3011 14.1106 21.9427H15.8979V21.7417C15.8979 20.9875 15.4304 20.4848 14.7567 20.4848L14.7592 20.4899ZM15.1842 21.1229C15.0701 21.0135 14.9172 20.954 14.7592 20.9573H14.7492C14.4132 20.9459 14.1296 21.2049 14.1106 21.5405H15.3676C15.3642 21.3825 15.2983 21.2323 15.1842 21.1229ZM26.6801 21.0684C26.2852 21.0536 25.9508 21.3572 25.9276 21.7517C25.9143 21.9525 25.9854 22.1497 26.1239 22.2957C26.2623 22.4418 26.4554 22.5235 26.6566 22.5209C27.0517 22.5188 27.3728 22.2013 27.3792 21.8062C27.3855 21.411 27.0749 21.0833 26.6801 21.0684ZM8.27384 21.7517V20.5502H7.75099V20.8417C7.5708 20.6099 7.29022 20.4789 6.99686 20.4899C6.30268 20.4899 5.74002 21.0525 5.74002 21.7467C5.74002 22.4408 6.30268 23.0035 6.99686 23.0035C7.29022 23.0144 7.5708 22.8834 7.75099 22.6516V22.9432H8.27384V21.7517ZM7.08067 21.0684C6.6858 21.0536 6.35143 21.3572 6.32822 21.7517C6.31489 21.9525 6.38601 22.1497 6.52444 22.2957C6.66287 22.4418 6.85592 22.5235 7.05717 22.5209C7.45232 22.5188 7.77336 22.2013 7.77979 21.8062C7.78613 21.411 7.47553 21.0833 7.08067 21.0684ZM28.743 22.6038C28.7757 22.6034 28.8081 22.6094 28.8385 22.6214C28.8674 22.6332 28.8938 22.6502 28.9165 22.6717C28.9385 22.6934 28.9564 22.7189 28.9692 22.7471C28.9949 22.8065 28.9949 22.8738 28.9692 22.9332C28.9564 22.9613 28.9385 22.9869 28.9165 23.0086C28.8938 23.03 28.8674 23.0471 28.8385 23.0588C28.8084 23.0721 28.7759 23.0789 28.743 23.0789C28.6457 23.0782 28.5576 23.0214 28.5167 22.9332C28.4913 22.8738 28.4913 22.8065 28.5167 22.7471C28.5296 22.7189 28.5475 22.6934 28.5696 22.6717C28.5921 22.6502 28.6186 22.6332 28.6474 22.6214C28.6779 22.6094 28.7103 22.6034 28.743 22.6038ZM28.8159 23.0136C28.7929 23.0237 28.768 23.0288 28.743 23.0287V23.0311C28.7177 23.0303 28.6929 23.0243 28.6701 23.0136C28.6475 23.0043 28.627 22.9906 28.6098 22.9733C28.5446 22.9022 28.5446 22.7931 28.6098 22.722C28.627 22.7047 28.6475 22.6911 28.6701 22.6818C28.6932 22.672 28.7179 22.6668 28.743 22.6667C28.768 22.6667 28.7929 22.6718 28.8159 22.6818C28.8376 22.6914 28.8572 22.7051 28.8737 22.722C28.9389 22.7931 28.9389 22.9022 28.8737 22.9733C28.8572 22.9903 28.8375 23.0039 28.8159 23.0136ZM28.7581 22.7296C28.7816 22.7284 28.8047 22.7355 28.8234 22.7496C28.8391 22.7626 28.8475 22.7822 28.8461 22.8025C28.8468 22.8193 28.8404 22.8357 28.8285 22.8477C28.8139 22.8609 28.7953 22.8688 28.7757 22.8703L28.8486 22.9533H28.7908L28.7229 22.8703H28.7003V22.9533H28.6525V22.732L28.7581 22.7296ZM28.7028 22.8326V22.7723L28.7581 22.7874C28.768 22.7844 28.7784 22.7844 28.7883 22.7874C28.7918 22.7945 28.7918 22.8028 28.7883 22.8099C28.7918 22.8171 28.7918 22.8255 28.7883 22.8326C28.7784 22.8356 28.768 22.8356 28.7581 22.8326H28.7028Z" fill="#121212"/>
<path d="M18.6001 2.23778H10.6819V16.4679H18.6001V2.23778Z" fill="#FF5F00"/>
<path d="M11.1847 9.35415C11.1817 6.57684 12.4564 3.95252 14.641 2.23779C10.9308 -0.678111 5.60262 -0.253386 2.40108 3.21348C-0.800361 6.68031 -0.800361 12.0254 2.40108 15.4922C5.60262 18.9591 10.9308 19.3838 14.641 16.4679C12.457 14.7537 11.1825 12.1305 11.1847 9.35415Z" fill="#EB001B"/>
<path d="M29.2834 9.35405C29.2833 12.8188 27.305 15.9793 24.1885 17.4935C21.0721 19.0075 17.3648 18.6093 14.641 16.4679C16.8241 14.7522 18.0987 12.1294 18.0987 9.35284C18.0987 6.57628 16.8241 3.95339 14.641 2.23774C17.3648 0.0963325 21.0721 -0.3019 24.1885 1.21217C27.305 2.72624 29.2833 5.8868 29.2834 9.35153V9.35405Z" fill="#F79E1B"/>
</svg>
